<svg id="Layer_1" data-name="Layer 1" xmlns="http://www.w3.org/2000/svg" viewBox="0 0 200 100"><defs><style>.cls-1{fill:#fff;}</style></defs><path class="cls-1" d="M198,45.91c0,26.75,4.26,43.64-89.42,46.84C20.18,95.76,2,72.64,1,45.91,0,15,27.65,8.42,96.84,3.32,198-4.13,198,19.15,198,45.91Z"/><path d="M170.31,7.33a22.33,22.33,0,1,0,22.34,22.33A22.34,22.34,0,0,0,170.31,7.33ZM168.69,17.9a55.85,55.85,0,0,1,12.86,3.56h0l3.1,2.11a60.13,60.13,0,0,0-10.33-2.32,26.91,26.91,0,0,0-5.62-2.39A14.62,14.62,0,0,0,164.34,21l-1.74.15A26.38,26.38,0,0,1,168.69,17.9Zm-11,3.36,1.16,1.24h.1c9.48-1.12,17.72-.43,30.13,4.52.13,0,.13.09,0,0-12.51-4.1-27.24-3.64-31.5-2.25l.57-2.09-.67-.34a28.5,28.5,0,0,0-.88,9.26c.08.74.18,1.4.29,2-.55.09-1.06.19-1.54.3-.08-.47-.16-1-.23-1.64A28.7,28.7,0,0,1,156.3,21.5Zm-2.58,2.41c-.14.53-.35,2-.45,2.65a11.61,11.61,0,0,0-1.11,6.41,14.49,14.49,0,0,0,.3,1.59c-.45.14-.87.28-1.24.42-.07-.26-.14-.54-.21-.83A11.66,11.66,0,0,1,155.14,23.67Zm22.51,14.8c-10.07,1.37-15.9-5.12-27.12-1.61,0,0,7.15-4.2,17.2-1.44,10.28,2.83,22.73-.63,22.73-.63S186.53,37.26,177.65,38.47Z"/><path d="M82.44,58.57l9.17.29.82,2q3.31,0,6.62,0L88.18,36c0-.12-.11-.19-.21-.19a.25.25,0,0,0-.22.17L75.21,60.23q3.14.21,6.3.34Zm4.85-10.38,2.33,5.73-4.94-.15Z"/><path d="M39.92,55.63l6.43,1.08,4-24L44,31.62l-1.85,11-8.33-1.41,1.85-11-6.43-1.08-4,23.79c1.31.31,2.62.6,3.94.89l2.45.41,1.29-7.62L41.21,48Z"/><path d="M137.53,58c2.5-.35,5-.72,7.48-1.13L134.69,44.67l6.74-11.47-7,.86L128.2,45,127,35l-6.47.79,2.93,23.81c2.17-.19,4.33-.42,6.48-.66l-.74-6.07.51-.82.57-.9c.19-.29.4-.62.64-1Z"/><path d="M109.9,55.08l3.54,5.26q3.47-.21,6.92-.49L116,53.48a8.18,8.18,0,0,0,3.13-3.35,9.45,9.45,0,0,0,.91-4.72,10.1,10.1,0,0,0-.85-3.74A8.52,8.52,0,0,0,117,38.73a9.15,9.15,0,0,0-3.29-1.87,11.77,11.77,0,0,0-4.4-.54l-9.23.41,1.09,24.08c2.17,0,4.34-.11,6.51-.19l-.24-5.44Zm-3-13.17,2.41-.1a4.88,4.88,0,0,1,1.88.22,3.29,3.29,0,0,1,1.28.78,3.19,3.19,0,0,1,.76,1.25,5.76,5.76,0,0,1,.29,1.62,4.46,4.46,0,0,1-.78,3,3.85,3.85,0,0,1-3.07,1.25l-2.41.11Z"/><path d="M65.1,59.43l1.51.14.73-5.37-11-1.48.34-2.52,8.73,1.18.69-5.15-8.73-1.18.76-5.6,10.47,1.41.73-5.43L52.45,33.14,49.18,57.27Z"/><path d="M27.54,28.57l-19-4L7.42,29.92l6.3,1.33L10,49q3.14.9,6.29,1.73L20.1,32.6l6.31,1.33Z"/><path d="M44.62,73.59a6.38,6.38,0,0,1,1.45-2,5.28,5.28,0,0,1,4.47-1.31,7.8,7.8,0,0,1,2,.55,6,6,0,0,1,1.42.89,5.19,5.19,0,0,1,1,1.08A11.52,11.52,0,0,1,55.57,74l5.34-2.57a13,13,0,0,0-1.43-2.31,10.31,10.31,0,0,0-2-2,12.46,12.46,0,0,0-2.7-1.51,15.45,15.45,0,0,0-3.49-.92,12.25,12.25,0,0,0-4.75.21,12.62,12.62,0,0,0-4.28,2A12.25,12.25,0,0,0,39,70.36a12.4,12.4,0,0,0-1.74,4.84,12.11,12.11,0,0,0,.26,5.15,12.33,12.33,0,0,0,5.74,7.47,13.09,13.09,0,0,0,4.68,1.62A13.26,13.26,0,0,0,54.37,89a11.63,11.63,0,0,0,5-3.72L54.9,81.36a7.25,7.25,0,0,1-2.41,2.08,6.11,6.11,0,0,1-3.76.4,5.68,5.68,0,0,1-2.39-.9,5.75,5.75,0,0,1-1.65-1.72,6.39,6.39,0,0,1-.85-2.31,8.85,8.85,0,0,1,0-2.72A9.06,9.06,0,0,1,44.62,73.59Z"/><path d="M147.08,82.76a6.12,6.12,0,0,1-3.5,1.42A5.52,5.52,0,0,1,141,84,5.63,5.63,0,0,1,139,82.8a6.46,6.46,0,0,1-1.46-2,8.42,8.42,0,0,1-.76-2.61,8.76,8.76,0,0,1,0-2.71,6.27,6.27,0,0,1,.85-2.3,5.28,5.28,0,0,1,1.6-1.66,5.36,5.36,0,0,1,2.33-.84,7.37,7.37,0,0,1,2,0,6.32,6.32,0,0,1,1.61.45,5.13,5.13,0,0,1,1.24.78,10.62,10.62,0,0,1,1,.93l4.42-4a13,13,0,0,0-2-1.82,10.65,10.65,0,0,0-2.49-1.35,12,12,0,0,0-3-.7,14.69,14.69,0,0,0-3.6.09,12.18,12.18,0,0,0-4.51,1.52A12.06,12.06,0,0,0,130.47,74a12.36,12.36,0,0,0-.32,5.14A12.11,12.11,0,0,0,131.83,84a12.3,12.3,0,0,0,7.59,5.58,13,13,0,0,0,5,.26,13.2,13.2,0,0,0,6.06-2.21,11.59,11.59,0,0,0,3.78-5l-5.4-2.52A7.21,7.21,0,0,1,147.08,82.76Z"/><path d="M107,78.57l-.16-9.77c-2.16.08-4.34.14-6.51.17l.16,9.38v4.88a4.76,4.76,0,0,1-1,3.21,4.74,4.74,0,0,1-6.13,0,4.75,4.75,0,0,1-1-3.22V78.08L92.61,69c-2,0-3.89,0-5.84-.09l-.68,0-.2,9v5.37a10.55,10.55,0,0,0,.78,4.3,8.29,8.29,0,0,0,2.19,3,9.5,9.5,0,0,0,3.34,1.83,13.13,13.13,0,0,0,3.08.58H97.7a13.28,13.28,0,0,0,3-.55A9.5,9.5,0,0,0,104,90.63a8.41,8.41,0,0,0,2.21-3,10.89,10.89,0,0,0,.8-4.3Z"/><path d="M127.87,81.87a9.44,9.44,0,0,0,.88-4.72,10.36,10.36,0,0,0-.87-3.74,8.76,8.76,0,0,0-2.15-2.92,9.16,9.16,0,0,0-3.3-1.85,12.25,12.25,0,0,0-4.4-.51l-9.23.48,1.25,24.1q3.27-.13,6.51-.31L116.28,87l2.43-.12L122.22,92q3.47-.24,6.9-.56l-4.36-6.21A8.2,8.2,0,0,0,127.87,81.87Zm-6.39-1.44a3.84,3.84,0,0,1-3.06,1.27l-2.41.13-.42-8.09,2.41-.12a5,5,0,0,1,1.89.21,3.37,3.37,0,0,1,1.28.78,3.1,3.1,0,0,1,.77,1.24,5.69,5.69,0,0,1,.3,1.62A4.47,4.47,0,0,1,121.48,80.43Z"/><polygon points="173.14 59.39 166.76 60.73 169.04 71.63 160.77 73.36 158.49 62.46 152.11 63.8 157.1 87.63 163.48 86.29 161.9 78.72 170.17 76.99 171.75 84.56 178.13 83.22 173.14 59.39"/><path d="M76.88,79.45l-8.44-.32L68.86,68l-6.51-.24-.9,23.62c2.16.21,4.33.41,6.5.58l.28-7.35,8.45.32-.29,7.58q3.24.18,6.51.28l.92-24.15q-3.27-.12-6.51-.3Z"/></svg>