<?xml version="1.0" standalone="no"?>
<!DOCTYPE svg PUBLIC "-//W3C//DTD SVG 20010904//EN"
 "http://www.w3.org/TR/2001/REC-SVG-20010904/DTD/svg10.dtd">
<svg version="1.0" xmlns="http://www.w3.org/2000/svg"
 width="196.000000pt" height="196.000000pt" viewBox="0 0 196.000000 196.000000"
 preserveAspectRatio="xMidYMid meet">
<metadata>
Created by potrace 1.14, written by Peter Selinger 2001-2017
</metadata>
<g transform="translate(0.000000,196.000000) scale(0.100000,-0.100000)"
fill="#000000" stroke="none">
<path d="M204 1930 c-63 -42 -64 -46 -64 -341 l0 -265 215 0 215 -1 -2 235 -3
235 -30 16 c-16 9 -73 41 -125 72 -145 85 -151 87 -206 49z"/>
<path d="M739 1673 c-3 -48 2 -337 7 -342 7 -8 594 -9 594 -2 -1 3 -93 60
-206 126 -113 66 -222 130 -242 142 -20 12 -46 26 -57 32 -11 5 -33 19 -50 30
-32 22 -45 26 -46 14z"/>
<path d="M143 1145 c-2 -6 -2 -248 -1 -537 3 -510 4 -527 23 -548 22 -25 90
-62 98 -54 2 3 17 7 32 10 15 3 33 10 40 17 7 7 63 41 124 76 l111 64 -2 490
-3 491 -209 0 c-136 1 -210 -3 -213 -9z"/>
<path d="M740 1090 c-1 -36 -2 -233 -3 -438 -1 -210 2 -372 7 -372 9 0 50 23
116 65 86 54 363 215 371 215 5 0 9 5 9 10 0 6 4 10 9 10 4 0 105 57 222 127
118 69 234 138 258 152 58 35 81 67 83 119 2 57 -22 87 -108 137 l-69 39 -447
1 -448 0 0 -65z"/>
</g>
</svg>
